<?xml version="1.0" encoding="UTF-8"?>
<svg version="1.1" xmlns="http://www.w3.org/2000/svg" width="615" height="202">
<path d="M0 0 C7.90378351 -0.45525793 15.53169016 1.75526894 21.70703125 6.84375 C23.26642313 8.56065621 24.52172979 10.27110717 25.75390625 12.234375 C26.33398438 13.12769531 26.33398438 13.12769531 26.92578125 14.0390625 C34.33186702 26.97287896 32.03424569 42.45694935 28.75390625 56.234375 C26.03210236 64.89466009 18.93295135 72.69391862 11.19140625 77.234375 C1.27993623 82.08722278 -9.00218783 82.61935899 -19.5703125 79.390625 C-27.71970943 75.86913377 -32.03840137 69.8438036 -35.37109375 61.84765625 C-39.69868022 48.9228556 -37.9688156 33.44838458 -32.62109375 21.109375 C-28.12821291 12.84938638 -21.04736146 5.57956833 -12.30859375 2.046875 C-8.20471502 0.95809085 -4.21534799 0.4398624 0 0 Z M-10.24609375 22.234375 C-16.77243662 31.6613147 -17.76882312 42.8236745 -15.74609375 53.99609375 C-14.6815426 57.65548834 -13.5284615 59.91278951 -10.99609375 62.796875 C-7.39877194 64.67729322 -5.26142579 64.79793037 -1.24609375 64.234375 C4.26058312 61.37513893 6.60033545 58.24330872 8.78125 52.5546875 C11.50423053 43.25937242 12.082421 32.09752425 7.75390625 23.234375 C6.25134589 20.76369265 5.44439197 19.48689549 2.703125 18.484375 C-2.89715272 17.86534603 -5.92364995 18.21349705 -10.24609375 22.234375 Z " fill="#F1F1F1" transform="translate(532.24609375,68.765625)"/>
<path d="M0 0 C4.11976662 3.31931286 6.84669825 6.0681115 7.69140625 11.453125 C8.38895537 19.49468186 7.17117712 24.51583388 2.00390625 30.828125 C1.24078125 31.694375 0.47765625 32.560625 -0.30859375 33.453125 C0.43390625 33.96875 1.17640625 34.484375 1.94140625 35.015625 C6.10335437 38.70462447 8.33149933 41.81017214 9.078125 47.29296875 C9.31556685 53.78577508 8.82674586 59.26071824 4.69140625 64.453125 C-2.3272126 71.26988092 -10.28982653 73.93596011 -19.89453125 73.81640625 C-21.06902328 73.81715401 -21.06902328 73.81715401 -22.26724243 73.81791687 C-23.90588955 73.81559422 -25.54454147 73.80597384 -27.18310547 73.78930664 C-29.6979115 73.7654894 -32.21167062 73.76878665 -34.7265625 73.77539062 C-36.32422509 73.7698202 -37.92188323 73.76271434 -39.51953125 73.75390625 C-40.64758682 73.75527336 -40.64758682 73.75527336 -41.7984314 73.75666809 C-47.07747694 73.68424181 -47.07747694 73.68424181 -49.30859375 71.453125 C-50.32047119 63.38465739 -48.88023748 54.75905848 -48.21484375 46.6953125 C-48.10239536 45.29715719 -47.99030029 43.89897342 -47.87854004 42.50076294 C-47.58613061 38.85424246 -47.28898305 35.2081237 -46.99078369 31.56207275 C-46.68625693 27.82807476 -46.38630035 24.09370983 -46.0859375 20.359375 C-45.4979146 13.05692888 -44.90487629 5.75490182 -44.30859375 -1.546875 C-42.87216098 -1.86791897 -41.43561576 -2.18845981 -39.99902344 -2.50878906 C-39.19905945 -2.68734436 -38.39909546 -2.86589966 -37.57489014 -3.04986572 C-25.80738853 -5.63053324 -10.47383723 -7.01800261 0 0 Z M-26.30859375 11.453125 C-27.65667052 14.75013562 -27.40929488 18.1886211 -27.37109375 21.703125 C-27.36207031 22.78078125 -27.35304688 23.8584375 -27.34375 24.96875 C-27.33214844 25.78859375 -27.32054687 26.6084375 -27.30859375 27.453125 C-21.53365236 27.79962148 -17.31555393 27.75039146 -12.30859375 24.453125 C-9.84535306 20.75826397 -9.91867687 18.82019408 -10.30859375 14.453125 C-12.13974582 11.83719347 -13.21827741 11.48323045 -16.30859375 10.453125 C-19.99242144 10.32155973 -22.7991296 10.28330362 -26.30859375 11.453125 Z M-28.30859375 41.453125 C-29.48654228 44.98697059 -29.44123692 47.85590053 -29.43359375 51.578125 C-29.43617188 52.83882812 -29.43875 54.09953125 -29.44140625 55.3984375 C-29.65869397 58.32826632 -29.65869397 58.32826632 -28.30859375 59.453125 C-22.91639095 59.73203204 -18.38315902 59.54265187 -13.30859375 57.453125 C-10.58366201 54.47273091 -10.30859375 52.93772423 -10.30859375 48.890625 C-11.09397279 45.44582466 -11.09397279 45.44582466 -13.12109375 43.015625 C-18.04549375 40.60170343 -22.92099981 41.14378946 -28.30859375 41.453125 Z " fill="#F2F2F2" transform="translate(361.30859375,74.546875)"/>
<path d="M0 0 C1.80581206 2.16893232 2.18233122 3.83714833 2.76538086 6.59423828 C2.98572998 7.60856934 3.2060791 8.62290039 3.43310547 9.66796875 C3.66263916 10.78187988 3.89217285 11.89579102 4.12866211 13.04345703 C4.37559814 14.20377441 4.62253418 15.3640918 4.87695312 16.55957031 C5.42823991 19.15606198 5.97499194 21.75321582 6.51733398 24.3515625 C7.34684035 28.30800919 8.20841839 32.25699562 9.07572937 36.20530701 C9.83150098 39.65087181 10.57822583 43.09836253 11.32339478 46.54623413 C11.69267024 48.24855445 12.0648697 49.95024319 12.44003296 51.65127563 C12.96951525 54.05869593 13.48610978 56.46855284 13.99975586 58.87939453 C14.16086853 59.59917984 14.3219812 60.31896515 14.48797607 61.06056213 C15.28864656 64.88637833 15.79806724 68.00660393 14.44116211 71.73095703 C11.00615512 74.02096169 9.55388192 74.02843767 5.50366211 74.04345703 C4.46338867 74.06021484 3.42311523 74.07697266 2.35131836 74.09423828 C-0.9622944 73.68059266 -2.25208875 73.12101991 -4.55883789 70.73095703 C-5.60571289 68.35595703 -5.60571289 68.35595703 -6.30883789 65.73095703 C-6.55118164 64.86470703 -6.79352539 63.99845703 -7.04321289 63.10595703 C-7.55883789 60.73095703 -7.55883789 60.73095703 -7.55883789 57.73095703 C-18.44883789 57.23595703 -18.44883789 57.23595703 -29.55883789 56.73095703 C-29.88883789 58.38095703 -30.21883789 60.03095703 -30.55883789 61.73095703 C-30.96751003 63.46716286 -31.40511354 65.19681291 -31.87133789 66.91845703 C-32.0943457 67.77826172 -32.31735352 68.63806641 -32.54711914 69.52392578 C-33.55883789 71.73095703 -33.55883789 71.73095703 -35.32055664 73.00830078 C-39.66602115 74.41128671 -44.05933844 74.27035074 -48.55883789 73.73095703 C-51.24633789 72.16845703 -51.24633789 72.16845703 -52.55883789 69.73095703 C-53.26195663 63.14524059 -51.12168366 57.91912521 -48.79711914 51.82080078 C-48.4094487 50.77630264 -48.02177826 49.7318045 -47.62236023 48.65565491 C-46.38265573 45.32250548 -45.12743385 41.99545952 -43.87133789 38.66845703 C-42.63948168 35.37247462 -41.41078514 32.07532644 -40.18232727 28.77807617 C-39.38940894 26.65476467 -38.59321959 24.53267157 -37.79362488 22.41186523 C-36.13413216 18.00516358 -34.49046523 13.60218631 -32.99951172 9.13525391 C-32.77760666 8.47650772 -32.5557016 7.81776154 -32.32707214 7.13905334 C-31.775675 5.47962577 -31.24175703 3.81441627 -30.7097168 2.14868164 C-29.38756447 -0.62884795 -28.40636751 -1.42557103 -25.62133789 -2.64404297 C-17.66655825 -4.15478263 -6.66859424 -5.42887281 0 0 Z M-15.55883789 14.73095703 C-20.86488174 27.37908245 -20.86488174 27.37908245 -23.55883789 40.73095703 C-22.50283411 42.00966085 -22.50283411 42.00966085 -20.09008789 41.86376953 C-19.08977539 41.86119141 -18.08946289 41.85861328 -17.05883789 41.85595703 C-15.55836914 41.85982422 -15.55836914 41.85982422 -14.02758789 41.86376953 C-11.61484167 42.00966085 -11.61484167 42.00966085 -10.55883789 40.73095703 C-10.47304915 26.75413045 -10.47304915 26.75413045 -15.55883789 14.73095703 Z " fill="#F2F2F2" transform="translate(289.558837890625,74.26904296875)"/>
<path d="M0 0 C-0.68047695 3.41731842 -2.00454109 6.12713646 -3.66015625 9.18359375 C-4.202771 10.18753174 -4.74538574 11.19146973 -5.30444336 12.22583008 C-5.88460205 13.28568115 -6.46476074 14.34553223 -7.0625 15.4375 C-7.65232666 16.52119873 -8.24215332 17.60489746 -8.84985352 18.72143555 C-12.49036247 25.36786932 -16.26202828 31.87253535 -20.3125 38.27734375 C-22.48331956 41.77980031 -24.41144284 45.38973272 -26.3515625 49.0234375 C-28.78177595 53.41164283 -31.39302158 57.68799037 -34.01733398 61.96240234 C-35.63960709 64.62508062 -37.01015144 67.03045431 -38 70 C-34.535 70.495 -34.535 70.495 -31 71 C-30.72704102 70.27594971 -30.45408203 69.55189941 -30.17285156 68.8059082 C-29.03416776 66.0817423 -27.73196872 63.64746312 -26.234375 61.10546875 C-25.68064209 60.16131104 -25.12690918 59.21715332 -24.55639648 58.24438477 C-23.96028564 57.23561279 -23.3641748 56.22684082 -22.75 55.1875 C-21.48561292 53.03389183 -20.22129198 50.88024484 -18.95703125 48.7265625 C-18.30557129 47.61958008 -17.65411133 46.51259766 -16.98291016 45.37207031 C-13.78987466 39.94210156 -10.6133144 34.50255245 -7.4375 29.0625 C-6.86676758 28.08756592 -6.29603516 27.11263184 -5.70800781 26.1081543 C-2.3988929 20.4445522 0.84297007 14.74982851 4 9 C9.56140803 13.6711638 12.42336307 19.79992209 15.8125 26.125 C17.13439071 28.55811722 18.4644746 30.98668692 19.796875 33.4140625 C20.13815933 34.03674011 20.47944366 34.65941772 20.83106995 35.30096436 C25.20775646 43.24863833 29.8750922 51.02308386 34.54418945 58.80126953 C36.37619005 61.8598689 38.19445812 64.92571253 40 68 C40.60440918 69.02867187 41.20881836 70.05734375 41.83154297 71.1171875 C42.39115723 72.09945312 42.95077148 73.08171875 43.52734375 74.09375 C44.0287085 74.96708984 44.53007324 75.84042969 45.04663086 76.74023438 C46 79 46 79 45 82 C40.43783535 82.14532035 35.87626638 82.23408477 31.3125 82.3125 C30.01892578 82.35439453 28.72535156 82.39628906 27.39257812 82.43945312 C26.14541016 82.45556641 24.89824219 82.47167969 23.61328125 82.48828125 C21.89298706 82.52755737 21.89298706 82.52755737 20.13793945 82.56762695 C16.02541121 81.82370505 14.63068031 80.16957118 12 77 C9.43758962 73.02535208 7.20634477 68.88722121 4.96337891 64.72753906 C4.09936053 63.17817413 3.15391027 61.67488767 2.19921875 60.1796875 C0.71406926 57.73130152 -0.39920647 55.80213857 -1 53 C0.07979953 49.52699094 1.76399302 46.84832889 4 44 C6.63614798 46.39627381 8.32582505 48.97691125 10.13671875 52.03515625 C10.71357422 53.00904297 11.29042969 53.98292969 11.88476562 54.98632812 C12.47966797 56.00146484 13.07457031 57.01660156 13.6875 58.0625 C14.59725586 59.59100586 14.59725586 59.59100586 15.52539062 61.15039062 C20 68.74564996 20 68.74564996 20 71 C20.99 70.67 21.98 70.34 23 70 C24.66621616 69.96125079 26.33394172 69.9549714 28 70 C24.55879226 63.94892755 21.10620473 57.90448003 17.64257812 51.86621094 C16.58703594 50.02434631 15.53348118 48.18134052 14.48242188 46.33691406 C13.12056666 43.94949849 11.74923418 41.5678055 10.375 39.1875 C9.9620166 38.45926025 9.5490332 37.73102051 9.12353516 36.98071289 C8.1387597 35.28641105 7.0771253 33.63714462 6 32 C5.34 32 4.68 32 4 32 C2.41600661 34.11804058 2.41600661 34.11804058 0.75 37 C0.41427979 37.55743896 0.07855957 38.11487793 -0.26733398 38.68920898 C-1.52301245 40.78620572 -2.76266475 42.89212503 -4 45 C-4.53834473 45.91668457 -5.07668945 46.83336914 -5.63134766 47.77783203 C-8.60961029 52.85762144 -11.57708397 57.94358481 -14.53515625 63.03515625 C-15.11789307 64.00437012 -15.70062988 64.97358398 -16.30102539 65.97216797 C-18.07517426 69.00189475 -18.07517426 69.00189475 -19.43139648 72.39111328 C-21.00107486 75.83885878 -22.31084711 78.32162755 -25 81 C-30.38895686 82.47103032 -35.41378488 82.14619745 -40.9375 81.75 C-42.39886929 81.68973735 -43.86047733 81.63499629 -45.32226562 81.5859375 C-48.88650938 81.45434609 -52.44172659 81.2477862 -56 81 C-56.33 80.34 -56.66 79.68 -57 79 C-55.70241739 76.50417125 -54.34382294 74.14367771 -52.875 71.75 C-51.95162318 70.2136617 -51.02845692 68.67719683 -50.10546875 67.140625 C-49.6057959 66.31498047 -49.10612305 65.48933594 -48.59130859 64.63867188 C-45.75988513 59.94366961 -42.97658155 55.22023041 -40.1875 50.5 C-39.64915527 49.5934668 -39.11081055 48.68693359 -38.55615234 47.75292969 C-34.18724749 40.37981043 -30.02281882 32.90837343 -25.9375 25.375 C-14.60099085 4.60099085 -14.60099085 4.60099085 -11 1 C-7.26155861 0.36517033 -3.79819843 0 0 0 Z " fill="#26BCF7" transform="translate(124,69)"/>
<path d="M0 0 C0.81496445 0.0199855 1.62992889 0.03997101 2.46958923 0.06056213 C3.39046829 0.08065842 4.31134735 0.1007547 5.26013184 0.12145996 C6.76168068 0.16201256 6.76168068 0.16201256 8.29356384 0.2033844 C9.31316696 0.22699539 10.33277008 0.25060638 11.38327026 0.27493286 C14.65428364 0.35178172 17.92507276 0.43571427 21.19590759 0.51979065 C23.407485 0.57299011 25.61907349 0.62573062 27.83067322 0.67799377 C33.26505812 0.80742538 38.69927518 0.94268015 44.13340759 1.08229065 C45.43392026 10.31781538 45.43392026 10.31781538 43.13340759 14.08229065 C40.05159721 17.40593324 37.6692962 18.36043795 33.27012634 18.69166565 C31.45431549 18.75769513 29.63769901 18.80404372 27.82090759 18.83229065 C26.88955994 18.86193909 25.95821228 18.89158752 24.99864197 18.9221344 C22.71014494 18.99254969 20.4226495 19.04538279 18.13340759 19.08229065 C17.96840759 20.34041565 17.80340759 21.59854065 17.63340759 22.89479065 C17.49418884 23.95633362 17.49418884 23.95633362 17.35215759 25.0393219 C17.0801746 27.23700771 17.0801746 27.23700771 17.13340759 30.08229065 C24.06340759 30.08229065 30.99340759 30.08229065 38.13340759 30.08229065 C40.52100449 38.4388798 40.52100449 38.4388798 38.13340759 44.08229065 C35.58361145 46.94912493 33.25692872 47.31867462 29.58653259 47.5940094 C27.85269558 47.66680408 26.11819259 47.72494761 24.38340759 47.76979065 C23.49524353 47.80395081 22.60707947 47.83811096 21.69200134 47.87330627 C19.50592956 47.95557779 17.32024808 48.02479237 15.13340759 48.08229065 C15.14500916 48.76936096 15.15661072 49.45643127 15.16856384 50.1643219 C15.17758728 51.06537659 15.18661072 51.96643127 15.19590759 52.89479065 C15.20750916 53.78811096 15.21911072 54.68143127 15.23106384 55.6018219 C15.13340759 58.08229065 15.13340759 58.08229065 14.13340759 61.08229065 C23.04340759 61.08229065 31.95340759 61.08229065 41.13340759 61.08229065 C42.60414542 65.49450413 42.61335652 69.42092899 41.32090759 73.89479065 C40.13340759 76.08229065 40.13340759 76.08229065 37.13340759 78.08229065 C35.14692688 78.32952881 35.14692688 78.32952881 32.86143494 78.32521057 C32.00399689 78.3282872 31.14655884 78.33136383 30.26313782 78.33453369 C29.34118622 78.32734818 28.41923462 78.32016266 27.46934509 78.3127594 C26.52153168 78.31230118 25.57371826 78.31184296 24.59718323 78.31137085 C22.59492235 78.30835046 20.59266379 78.30047053 18.59043884 78.2881012 C15.51353201 78.26982109 12.43692561 78.26759168 9.35997009 78.26783752 C7.41725914 78.26292325 5.47455024 78.25709532 3.53184509 78.2502594 C2.60584503 78.24914658 1.67984497 78.24803375 0.7257843 78.24688721 C-0.12534943 78.24050735 -0.97648315 78.2341275 -1.85340881 78.22755432 C-2.60602997 78.22374252 -3.35865112 78.21993073 -4.13407898 78.21600342 C-5.86659241 78.08229065 -5.86659241 78.08229065 -6.86659241 77.08229065 C-7.00065194 74.67376009 -7.0536387 72.30891996 -7.05018616 69.8986969 C-7.04917404 69.11499222 -7.04816193 68.33128754 -7.04711914 67.52383423 C-6.93652242 55.99444964 -6.033936 44.49501908 -5.21253967 32.9990387 C-4.97321792 29.63925808 -4.74119035 26.27915093 -4.51332951 22.91858578 C-4.29334946 19.69027124 -4.0660818 16.46247358 -3.83924866 13.2346344 C-3.75691483 12.02758347 -3.67458099 10.82053253 -3.5897522 9.5769043 C-3.50974472 8.47387466 -3.42973724 7.37084503 -3.3473053 6.23439026 C-3.27846634 5.26053879 -3.20962738 4.28668732 -3.13870239 3.2833252 C-2.74776683 0.12113813 -2.74776683 0.12113813 0 0 Z " fill="#F4F4F4" transform="translate(385.86659240722656,69.91770935058594)"/>
<path d="M0 0 C0.95739075 -0.00315216 1.91478149 -0.00630432 2.90118408 -0.009552 C3.92218201 -0.00752777 4.94317993 -0.00550354 5.99511719 -0.00341797 C7.57906281 -0.00485306 7.57906281 -0.00485306 9.19500732 -0.00631714 C11.4206956 -0.00699634 13.64638587 -0.00516018 15.87207031 -0.00097656 C19.29333893 0.00439665 22.71447753 -0.00094126 26.13574219 -0.00732422 C28.29720081 -0.00666381 30.45865936 -0.00538342 32.62011719 -0.00341797 C33.64921204 -0.0054422 34.67830688 -0.00746643 35.73858643 -0.009552 C36.68336853 -0.00639984 37.62815063 -0.00324768 38.6015625 0 C39.85468231 0.00119339 39.85468231 0.00119339 41.13311768 0.00241089 C43.04199219 0.12939453 43.04199219 0.12939453 44.04199219 1.12939453 C44.57345834 6.32208025 44.89520726 10.70736942 42.16699219 15.25439453 C38.63346864 18.37220943 36.06555182 18.37287573 31.41699219 18.69189453 C30.22847656 18.77568359 29.03996094 18.85947266 27.81542969 18.94580078 C26.90019531 19.00638672 25.98496094 19.06697266 25.04199219 19.12939453 C23.66912271 32.49296448 22.59450235 45.8577535 21.73974609 59.26489258 C21.52543878 62.55475696 21.29388994 65.84221049 21.04199219 69.12939453 C20.98414551 69.89928711 20.92629883 70.66917969 20.86669922 71.46240234 C20.67089844 73.35595703 20.67089844 73.35595703 20.04199219 76.12939453 C15.35148592 79.25639871 10.52602179 78.80935507 5.04199219 78.12939453 C1.79199219 76.31689453 1.79199219 76.31689453 0.04199219 73.12939453 C-0.55267221 65.95127322 0.17871792 58.60038404 0.69824219 51.43017578 C0.76483032 50.46911423 0.83141846 49.50805267 0.90002441 48.51786804 C1.11046347 45.49228264 1.32613048 42.46709738 1.54199219 39.44189453 C1.68687165 37.37225742 1.83140593 35.30259611 1.97558594 33.23291016 C2.32707146 28.1981169 2.68324126 23.16367509 3.04199219 18.12939453 C-2.56800781 18.12939453 -8.17800781 18.12939453 -13.95800781 18.12939453 C-15.31268152 14.06537341 -15.6208029 10.37426193 -14.95800781 6.12939453 C-12.7251803 3.06723108 -11.28692305 1.47591082 -7.59210205 0.51248169 C-5.01938061 0.13832023 -2.59823496 0.002465 0 0 Z " fill="#F1F1F1" transform="translate(449.9580078125,69.87060546875)"/>
<path d="M0 0 C5.56140803 4.6711638 8.42336307 10.79992209 11.8125 17.125 C13.13439071 19.55811722 14.4644746 21.98668692 15.796875 24.4140625 C16.13815933 25.03674011 16.47944366 25.65941772 16.83106995 26.30096436 C21.20775646 34.24863833 25.8750922 42.02308386 30.54418945 49.80126953 C32.37619005 52.8598689 34.19445812 55.92571253 36 59 C36.60440918 60.02867187 37.20881836 61.05734375 37.83154297 62.1171875 C38.39115723 63.09945312 38.95077148 64.08171875 39.52734375 65.09375 C40.27939087 66.40375977 40.27939087 66.40375977 41.04663086 67.74023438 C42 70 42 70 41 73 C36.43783535 73.14532035 31.87626638 73.23408477 27.3125 73.3125 C26.01892578 73.35439453 24.72535156 73.39628906 23.39257812 73.43945312 C21.52182617 73.46362305 21.52182617 73.46362305 19.61328125 73.48828125 C18.46641846 73.51446533 17.31955566 73.54064941 16.13793945 73.56762695 C12.02541121 72.82370505 10.63068031 71.16957118 8 68 C5.43758962 64.02535208 3.20634477 59.88722121 0.96337891 55.72753906 C0.09936053 54.17817413 -0.84608973 52.67488767 -1.80078125 51.1796875 C-3.28593074 48.73130152 -4.39920647 46.80213857 -5 44 C-3.92020047 40.52699094 -2.23600698 37.84832889 0 35 C2.63614798 37.39627381 4.32582505 39.97691125 6.13671875 43.03515625 C6.71357422 44.00904297 7.29042969 44.98292969 7.88476562 45.98632812 C8.47966797 47.00146484 9.07457031 48.01660156 9.6875 49.0625 C10.29400391 50.08150391 10.90050781 51.10050781 11.52539062 52.15039062 C16 59.74564996 16 59.74564996 16 62 C17.485 61.505 17.485 61.505 19 61 C20.66621616 60.96125079 22.33394172 60.9549714 24 61 C20.55879226 54.94892755 17.10620473 48.90448003 13.64257812 42.86621094 C12.58703594 41.02434631 11.53348118 39.18134052 10.48242188 37.33691406 C9.12056666 34.94949849 7.74923418 32.5678055 6.375 30.1875 C5.9620166 29.45926025 5.5490332 28.73102051 5.12353516 27.98071289 C4.1387597 26.28641105 3.0771253 24.63714462 2 23 C1.34 23 0.68 23 0 23 C-1.34648215 24.94987261 -2.60187034 26.96299407 -3.8125 29 C-4.52712839 30.19153544 -5.24197203 31.38294181 -5.95703125 32.57421875 C-6.63121094 33.70472656 -7.30539063 34.83523437 -8 36 C-8.99482088 37.60738362 -9.99372448 39.21226243 -11 40.8125 C-11.66 41.864375 -12.32 42.91625 -13 44 C-14.04449911 40.86650268 -13.93423645 40.01031744 -13 37 C-12.34 37 -11.68 37 -11 37 C-11 36.34 -11 35.68 -11 35 C-10.34 35 -9.68 35 -9 35 C-9.33 31.7 -9.66 28.4 -10 25 C-10.99 25 -11.98 25 -13 25 C-11.47451155 19.52567572 -8.85770034 15.06605883 -5.9375 10.25 C-5.0295437 8.73461712 -4.12197294 7.21900315 -3.21484375 5.703125 C-2.81386475 5.03958008 -2.41288574 4.37603516 -1.99975586 3.69238281 C-1.28783421 2.48724463 -0.62596972 1.25193945 0 0 Z " fill="#8C61E3" transform="translate(128,78)"/>
<path d="M0 0 C-0.68047695 3.41731842 -2.00454109 6.12713646 -3.66015625 9.18359375 C-4.202771 10.18753174 -4.74538574 11.19146973 -5.30444336 12.22583008 C-5.88460205 13.28568115 -6.46476074 14.34553223 -7.0625 15.4375 C-7.65232666 16.52119873 -8.24215332 17.60489746 -8.84985352 18.72143555 C-12.49036247 25.36786932 -16.26202828 31.87253535 -20.3125 38.27734375 C-22.48331956 41.77980031 -24.41144284 45.38973272 -26.3515625 49.0234375 C-28.78177595 53.41164283 -31.39302158 57.68799037 -34.01733398 61.96240234 C-35.63960709 64.62508062 -37.01015144 67.03045431 -38 70 C-35.69 70.33 -33.38 70.66 -31 71 C-30.67 70.01 -30.34 69.02 -30 68 C-29.67 68.66 -29.34 69.32 -29 70 C-29.495 70.99 -29.495 70.99 -30 72 C-33.3 72 -36.6 72 -40 72 C-39.67 69.03 -39.34 66.06 -39 63 C-38.01 63 -37.02 63 -36 63 C-36 61.35 -36 59.7 -36 58 C-34.515 57.505 -34.515 57.505 -33 57 C-33 56.01 -33 55.02 -33 54 C-32.34 54 -31.68 54 -31 54 C-31 52.35 -31 50.7 -31 49 C-31.99 49 -32.98 49 -34 49 C-34.33 49.99 -34.66 50.98 -35 52 C-35.66 51.67 -36.32 51.34 -37 51 C-37.144375 51.78375 -37.28875 52.5675 -37.4375 53.375 C-38 56 -38 56 -39 58 C-40.485 58.495 -40.485 58.495 -42 59 C-42.33 59.66 -42.66 60.32 -43 61 C-43.66 61 -44.32 61 -45 61 C-43.56898275 56.01822338 -41.40248551 52.04082924 -38.6875 47.6875 C-37.87135765 46.35349919 -37.05624692 45.01886667 -36.2421875 43.68359375 C-35.85256836 43.04663574 -35.46294922 42.40967773 -35.06152344 41.75341797 C-32.92874573 38.23050871 -30.95974627 34.62098814 -29 31 C-14.675 4.675 -14.675 4.675 -11 1 C-7.26155861 0.36517033 -3.79819843 0 0 0 Z " fill="#499DF0" transform="translate(124,69)"/>
<path d="M0 0 C1.32 0 2.64 0 4 0 C4.495 4.95 4.495 4.95 5 10 C4.34 10 3.68 10 3 10 C3 10.66 3 11.32 3 12 C2.34 12 1.68 12 1 12 C0.979375 13.216875 0.95875 14.43375 0.9375 15.6875 C0.16776289 22.60429265 -3.52913054 28.10362137 -7 34 C-7.65484375 35.14339844 -8.3096875 36.28679687 -8.984375 37.46484375 C-13.75595238 45.75595238 -13.75595238 45.75595238 -15 47 C-17.29151417 47.08790975 -19.58572524 47.10694038 -21.87890625 47.09765625 C-22.90889992 47.09553383 -22.90889992 47.09553383 -23.95970154 47.09336853 C-26.16067801 47.08775479 -28.36155409 47.07520007 -30.5625 47.0625 C-32.05143083 47.05748676 -33.54036324 47.05292355 -35.02929688 47.04882812 C-38.68623075 47.03778093 -42.34310558 47.02050713 -46 47 C-46.33 46.34 -46.66 45.68 -47 45 C-45.5625 42.375 -45.5625 42.375 -44 40 C-43 42 -43 42 -43 45 C-34.42 45 -25.84 45 -17 45 C-16.34 43.68 -15.68 42.36 -15 41 C-14.34 41 -13.68 41 -13 41 C-13.33 39.35 -13.66 37.7 -14 36 C-14.66 36 -15.32 36 -16 36 C-16 35.01 -16 34.02 -16 33 C-17.485 33.495 -17.485 33.495 -19 34 C-17.4838057 29.89346046 -15.51466725 26.21756006 -13.33984375 22.421875 C-12.81494102 21.50381073 -12.81494102 21.50381073 -12.2794342 20.56719971 C-11.54386137 19.28220202 -10.80672792 17.99809655 -10.06811523 16.71484375 C-8.93422994 14.74431712 -7.80561226 12.77084508 -6.67773438 10.796875 C-1.14763617 1.14763617 -1.14763617 1.14763617 0 0 Z " fill="#697ADF" transform="translate(114,103)"/>
<path d="M0 0 C2.28535857 2.13020807 3.89551472 4.2537929 5.48046875 6.94140625 C5.92197266 7.68970703 6.36347656 8.43800781 6.81835938 9.20898438 C7.27017578 9.98564453 7.72199219 10.76230469 8.1875 11.5625 C8.65091797 12.34302734 9.11433594 13.12355469 9.59179688 13.92773438 C13 19.74527108 13 19.74527108 13 22 C9.125 20.25 9.125 20.25 8 18 C7.34 18 6.68 18 6 18 C6.33 20.64 6.66 23.28 7 26 C7.66 26 8.32 26 9 26 C9.309375 27.134375 9.61875 28.26875 9.9375 29.4375 C10.62924531 32.78775099 10.62924531 32.78775099 12 34 C13.99782126 34.15825258 16.00088834 34.25119171 18.00390625 34.31640625 C19.82631836 34.37924805 19.82631836 34.37924805 21.68554688 34.44335938 C23.60463867 34.50233398 23.60463867 34.50233398 25.5625 34.5625 C26.84576172 34.60568359 28.12902344 34.64886719 29.45117188 34.69335938 C32.63399853 34.799848 35.81690674 34.90185962 39 35 C39.33 33.68 39.66 32.36 40 31 C40.66 32.98 41.32 34.96 42 37 C36.33509219 38.27100586 30.7848121 38.29906571 25 38.375 C23.91976562 38.41238281 22.83953125 38.44976562 21.7265625 38.48828125 C13.82089371 38.57612201 13.82089371 38.57612201 10 35.89453125 C6.63084716 31.01847217 3.77193333 25.9361309 0.96337891 20.72753906 C0.09936053 19.17817413 -0.84608973 17.67488767 -1.80078125 16.1796875 C-3.28593074 13.73130152 -4.39920647 11.80213857 -5 9 C-3.92020047 5.52699094 -2.23600698 2.84832889 0 0 Z " fill="#934AC5" transform="translate(128,113)"/>
<path d="M0 0 C2.5 2.125 2.5 2.125 5 5 C5 6.98 5 8.96 5 11 C9.29 11 13.58 11 18 11 C18 9.35 18 7.7 18 6 C20.31 6 22.62 6 25 6 C25.33 6.66 25.66 7.32 26 8 C26.99 8.33 27.98 8.66 29 9 C31.29013653 12.4352048 31.17842973 13.985331 31 18 C26.54172074 18.0578304 22.0835372 18.09353855 17.625 18.125 C16.35398438 18.14175781 15.08296875 18.15851563 13.7734375 18.17578125 C12.56171875 18.18222656 11.35 18.18867188 10.1015625 18.1953125 C8.98088379 18.20578613 7.86020508 18.21625977 6.70556641 18.22705078 C4 18 4 18 2 16 C1.59952556 13.67724823 1.2602896 11.34260643 1 9 C0.34 9 -0.32 9 -1 9 C-1.33 6.36 -1.66 3.72 -2 1 C-1.34 0.67 -0.68 0.34 0 0 Z " fill="#AB48DE" transform="translate(136,130)"/>
<path d="M0 0 C0.99 0.33 1.98 0.66 3 1 C3.33 2.98 3.66 4.96 4 7 C4.89074219 7.17144531 5.78148437 7.34289062 6.69921875 7.51953125 C11.27069083 9.56993115 12.54911388 12.36719845 14.8125 16.6875 C15.20630859 17.38294922 15.60011719 18.07839844 16.00585938 18.79492188 C18.42897683 23.24630918 19.59603999 26.94718872 20 32 C17.36 32 14.72 32 12 32 C8.26688633 24.69686985 8.26688633 24.69686985 6.875 21.0625 C6.18843441 18.8239113 6.18843441 18.8239113 4 18 C3.67 17.01 3.34 16.02 3 15 C2.49984375 14.54753906 1.9996875 14.09507813 1.484375 13.62890625 C-0.50979886 11.44056283 -0.52640557 9.85712731 -0.75 6.9375 C-0.82734375 6.05964844 -0.9046875 5.18179688 -0.984375 4.27734375 C-1 2 -1 2 0 0 Z " fill="#BD2ECD" transform="translate(139,102)"/>
<path d="M0 0 C3.50297874 4.02193856 9 10.39433144 9 16 C7.125 15.875 7.125 15.875 5 15 C3.875 12 3.875 12 3 9 C2.34 8.67 1.68 8.34 1 8 C1.33 12.62 1.66 17.24 2 22 C2.99 22.33 3.98 22.66 5 23 C5 23.99 5 24.98 5 26 C5.99 26.33 6.98 26.66 8 27 C9.38671875 29.72265625 9.38671875 29.72265625 10.6875 33.0625 C11.12449219 34.16722656 11.56148437 35.27195313 12.01171875 36.41015625 C12.33785156 37.26480469 12.66398437 38.11945313 13 39 C15.31 39 17.62 39 20 39 C20.33 37.68 20.66 36.36 21 35 C21.83878455 36.28813342 22.67086783 37.58063256 23.5 38.875 C23.9640625 39.59429687 24.428125 40.31359375 24.90625 41.0546875 C26 43 26 43 26 45 C25.01 44.67 24.02 44.34 23 44 C23 43.34 23 42.68 23 42 C22.21625 42.185625 21.4325 42.37125 20.625 42.5625 C18 43 18 43 16 42 C16 43.65 16 45.3 16 47 C11.71 47 7.42 47 3 47 C3 45.02 3 43.04 3 41 C4.5 42.375 4.5 42.375 6 44 C6 44.66 6 45.32 6 46 C7.485 45.505 7.485 45.505 9 45 C10.66621616 44.96125079 12.33394172 44.9549714 14 45 C7.78223437 34.0665856 1.55080849 23.14428826 -4.87646484 12.33227539 C-6.69249829 9.26881536 -8.47569527 6.22070839 -10 3 C-8.68 2.67 -7.36 2.34 -6 2 C-4.79371992 4.33214148 -3.8345262 6.49642139 -3 9 C-2.01 8.34 -1.02 7.68 0 7 C0.25015873 3.41642759 0.25015873 3.41642759 0 0 Z " fill="#842E96" transform="translate(138,94)"/>
<path d="M0 0 C2.31 0 4.62 0 7 0 C7.33 0.66 7.66 1.32 8 2 C8.99 2.33 9.98 2.66 11 3 C13.29013653 6.4352048 13.17842973 7.985331 13 12 C10.70858714 12.05384521 8.41681812 12.09272087 6.125 12.125 C4.21074219 12.15980469 4.21074219 12.15980469 2.2578125 12.1953125 C-1 12 -1 12 -3 10 C-2.01 6.7 -1.02 3.4 0 0 Z " fill="#DD1CD6" transform="translate(154,136)"/>
<path d="M0 0 C0.12503906 0.639375 0.25007813 1.27875 0.37890625 1.9375 C0.58386719 2.618125 0.78882812 3.29875 1 4 C2.32467746 4.6837045 3.65863633 5.34964186 5 6 C6.3984375 7.58984375 6.3984375 7.58984375 7 10 C5.67433536 12.71984677 4.34192919 15.05791157 2.6875 17.5625 C1.83493814 18.89566644 0.98458743 20.23025013 0.13671875 21.56640625 C-0.44009644 22.44727905 -0.44009644 22.44727905 -1.02856445 23.34594727 C-2.16581013 25.15116602 -2.16581013 25.15116602 -3 28 C-0.69 28.33 1.62 28.66 4 29 C4.33 28.01 4.66 27.02 5 26 C5.33 26.66 5.66 27.32 6 28 C5.67 28.66 5.34 29.32 5 30 C1.7 30 -1.6 30 -5 30 C-4.505 25.545 -4.505 25.545 -4 21 C-3.01 21 -2.02 21 -1 21 C-1 19.35 -1 17.7 -1 16 C-0.01 15.67 0.98 15.34 2 15 C2 14.01 2 13.02 2 12 C2.66 12 3.32 12 4 12 C4 10.35 4 8.7 4 7 C3.01 7 2.02 7 1 7 C0.67 7.99 0.34 8.98 0 10 C-0.66 9.67 -1.32 9.34 -2 9 C-2.144375 9.78375 -2.28875 10.5675 -2.4375 11.375 C-3 14 -3 14 -4 16 C-4.99 16.33 -5.98 16.66 -7 17 C-7.33 17.66 -7.66 18.32 -8 19 C-8.66 19 -9.32 19 -10 19 C-8.62394084 14.23448987 -6.53221934 10.2751447 -3.875 6.125 C-3.50246094 5.53203125 -3.12992187 4.9390625 -2.74609375 4.328125 C-1.83635 2.8818657 -0.91896202 1.44041954 0 0 Z " fill="#338CC3" transform="translate(89,111)"/>
<path d="M0 0 C1.2380014 3.57644848 0.74926071 6.33694766 0 10 C-0.66 10 -1.32 10 -2 10 C-2.12375 10.556875 -2.2475 11.11375 -2.375 11.6875 C-3.56904478 16.10546567 -5.20699222 19.39236495 -8 23 C-8.68320722 24.324934 -9.35238278 25.65731085 -10 27 C-10.36315666 25.0641649 -10.71522731 23.12624752 -11.0625 21.1875 C-11.25972656 20.10855469 -11.45695312 19.02960938 -11.66015625 17.91796875 C-12 15 -12 15 -11 12 C-10 11 -9 10 -8 9 C-7.67 8.01 -7.34 7.02 -7 6 C-6.34 6 -5.68 6 -5 6 C-4.814375 4.7934375 -4.814375 4.7934375 -4.625 3.5625 C-4.41875 2.716875 -4.2125 1.87125 -4 1 C-2 0 -2 0 0 0 Z " fill="#6A82EB" transform="translate(117,71)"/>
<path d="M0 0 C-1.14285359 5.88138746 -4.60400266 10.98416853 -7.4375 16.1875 C-8.03626953 17.30576172 -8.63503906 18.42402344 -9.25195312 19.57617188 C-9.82751953 20.63771484 -10.40308594 21.69925781 -10.99609375 22.79296875 C-11.78777954 24.25512817 -11.78777954 24.25512817 -12.59545898 25.74682617 C-14 28 -14 28 -16 29 C-16.368 23.48 -16.368 23.48 -14.5625 21.125 C-13 20 -13 20 -12 20 C-11.87625 19.236875 -11.7525 18.47375 -11.625 17.6875 C-11 15 -11 15 -9 12 C-8.34 12 -7.68 12 -7 12 C-7 8.7 -7 5.4 -7 2 C-11.08785794 3.46510021 -11.08785794 3.46510021 -11.75 6.125 C-11.8325 6.74375 -11.915 7.3625 -12 8 C-12.66 8 -13.32 8 -14 8 C-14.33 9.65 -14.66 11.3 -15 13 C-15.99 13.33 -16.98 13.66 -18 14 C-18.34342449 15.33076989 -18.67619874 16.66431979 -19 18 C-19.99 18.66 -20.98 19.32 -22 20 C-21.71898438 19.44183594 -21.43796875 18.88367188 -21.1484375 18.30859375 C-20.37032602 16.74443087 -19.60504985 15.17382877 -18.8515625 13.59765625 C-14.14304249 3.86571521 -14.14304249 3.86571521 -11 1 C-7.20710981 0.11950763 -3.89300021 0 0 0 Z " fill="#756ECA" transform="translate(124,69)"/>
<path d="M0 0 C0.66 0 1.32 0 2 0 C2 0.99 2 1.98 2 3 C2.99 2.67 3.98 2.34 5 2 C5 3.98 5 5.96 5 8 C4.34 8 3.68 8 3 8 C2.34 9.65 1.68 11.3 1 13 C-7.58 13 -16.16 13 -25 13 C-25 12.67 -25 12.34 -25 12 C-23.86820312 11.93941406 -22.73640625 11.87882813 -21.5703125 11.81640625 C-20.08852855 11.73200083 -18.6067584 11.64735283 -17.125 11.5625 C-16.37863281 11.52318359 -15.63226563 11.48386719 -14.86328125 11.44335938 C-10.80013136 11.28426376 -10.80013136 11.28426376 -7 10 C-6.34786708 7.97536745 -6.34786708 7.97536745 -6 6 C-6.99 6.33 -7.98 6.66 -9 7 C-9.99 6.34 -10.98 5.68 -12 5 C-8.7 5 -5.4 5 -2 5 C-1.34 3.35 -0.68 1.7 0 0 Z " fill="#44A9E9" transform="translate(96,136)"/>
<path d="M0 0 C3.42440519 2.97283527 4.09906289 5.45464274 4.47265625 9.8984375 C3.43542383 16.70473952 -1.26883027 22.36679526 -5 28 C-5.69680867 29.31783151 -6.38288212 30.64302257 -7 32 C-8.33332095 29.3333581 -7.67102033 27.83319697 -7 25 C-6.34 25 -5.68 25 -5 25 C-5 23.68 -5 22.36 -5 21 C-4.34 21 -3.68 21 -3 21 C-3.33 19.02 -3.66 17.04 -4 15 C-3.34 15 -2.68 15 -2 15 C-1.67 12.36 -1.34 9.72 -1 7 C-1.66 6.67 -2.32 6.34 -3 6 C-3.144375 6.78375 -3.28875 7.5675 -3.4375 8.375 C-4 11 -4 11 -5 13 C-5.99 12.67 -6.98 12.34 -8 12 C-7.23925157 10.37025436 -6.46601567 8.74633352 -5.6875 7.125 C-5.25824219 6.22007813 -4.82898438 5.31515625 -4.38671875 4.3828125 C-3 2 -3 2 0 0 Z " fill="#5B8DEF" transform="translate(104,87)"/>
<path d="M0 0 C0.66 0.99 1.32 1.98 2 3 C2.66 2.67 3.32 2.34 4 2 C3.33333333 6 2.66666667 10 2 14 C1.34 14 0.68 14 0 14 C0.66 15.32 1.32 16.64 2 18 C-1.3 18 -4.6 18 -8 18 C-7.83837003 10.72665157 -4.04781684 5.84449794 0 0 Z " fill="#17CAF2" transform="translate(78,130)"/>
<path d="M0 0 C0.99 0.33 1.98 0.66 3 1 C3.33 2.98 3.66 4.96 4 7 C4.886875 7.144375 5.77375 7.28875 6.6875 7.4375 C11.4267588 9.67299944 13.00842836 13.27662655 15 18 C15 18.66 15 19.32 15 20 C12 19 12 19 10.8125 16.9375 C10.544375 16.298125 10.27625 15.65875 10 15 C9.0925 15.2475 8.185 15.495 7.25 15.75 C4 16 4 16 1.6875 14.6875 C-0.8023018 10.7222601 -1.04036482 6.63388114 -1 2 C-0.67 1.34 -0.34 0.68 0 0 Z " fill="#A933C1" transform="translate(139,102)"/>
<path d="M0 0 C3.50297874 4.02193856 9 10.39433144 9 16 C7.125 15.875 7.125 15.875 5 15 C3.875 12 3.875 12 3 9 C2.34 8.67 1.68 8.34 1 8 C1 11.96 1 15.92 1 20 C-2.45804031 16.54195969 -4.39159141 13.92256904 -6.75 9.75 C-7.36359375 8.67234375 -7.9771875 7.5946875 -8.609375 6.484375 C-9.06828125 5.66453125 -9.5271875 4.8446875 -10 4 C-8.68 3.34 -7.36 2.68 -6 2 C-4.79371992 4.33214148 -3.8345262 6.49642139 -3 9 C-2.01 8.34 -1.02 7.68 0 7 C0.25015873 3.41642759 0.25015873 3.41642759 0 0 Z " fill="#8E3FB3" transform="translate(138,94)"/>
<path d="M0 0 C0.66 0 1.32 0 2 0 C0.30037822 4.73466068 -2.13715471 8.96209912 -4.625 13.3125 C-6.06875 15.849375 -7.5125 18.38625 -9 21 C-19.23 21 -29.46 21 -40 21 C-40.33 20.34 -40.66 19.68 -41 19 C-39.5625 16.375 -39.5625 16.375 -38 14 C-37 16 -37 16 -37 19 C-28.42 19 -19.84 19 -11 19 C-10.34 17.68 -9.68 16.36 -9 15 C-8.34 15 -7.68 15 -7 15 C-7.04125 14.2575 -7.0825 13.515 -7.125 12.75 C-6.94471208 8.78366581 -5.77842595 6.77842595 -3 4 C-2.67 3.34 -2.34 2.68 -2 2 C-1.34 2.33 -0.68 2.66 0 3 C0 2.01 0 1.02 0 0 Z " fill="#536FB5" transform="translate(108,129)"/>
<path d="M0 0 C0.78619709 2.76716613 1.11232564 5.18922119 1.0625 8.0625 C1.02579678 10.37480256 1 12.68740616 1 15 C0.34 15 -0.32 15 -1 15 C-1 16.65 -1 18.3 -1 20 C-2.65 19.67 -4.3 19.34 -6 19 C-6 18.01 -6 17.02 -6 16 C-6.99 16.33 -7.98 16.66 -9 17 C-7.51481201 12.95698825 -5.57122002 9.38853744 -3.375 5.6875 C-2.74335937 4.61886719 -2.11171875 3.55023438 -1.4609375 2.44921875 C-0.97882813 1.64097656 -0.49671875 0.83273438 0 0 Z " fill="#5593EF" transform="translate(104,120)"/>
<path d="M0 0 C1.48828125 1.30078125 1.48828125 1.30078125 3 3 C3.1875 6.1875 3.1875 6.1875 3 9 C3.66 9.33 4.32 9.66 5 10 C4.443125 10.8353125 4.443125 10.8353125 3.875 11.6875 C2.70484137 14.05716353 2.70484137 14.05716353 3.875 16.75 C4.24625 17.4925 4.6175 18.235 5 19 C4.01 19.33 3.02 19.66 2 20 C1.67 18.35 1.34 16.7 1 15 C0.38125 14.938125 -0.2375 14.87625 -0.875 14.8125 C-3 14 -3 14 -4.5625 12 C-5.26183284 7.20457482 -2.55402003 3.93387648 0 0 Z " fill="#9A58E2" transform="translate(128,113)"/>
<path d="M0 0 C0.99 0 1.98 0 3 0 C3 0.66 3 1.32 3 2 C3.66 2 4.32 2 5 2 C3.2653843 6.9278855 0.64380099 11.27064575 -2 15.75 C-2.45117188 16.52988281 -2.90234375 17.30976562 -3.3671875 18.11328125 C-3.80289063 18.85449219 -4.23859375 19.59570312 -4.6875 20.359375 C-5.08324219 21.03452148 -5.47898437 21.70966797 -5.88671875 22.40527344 C-7 24 -7 24 -9 25 C-8.67 22.69 -8.34 20.38 -8 18 C-7.34 18 -6.68 18 -6 18 C-6 17.34 -6 16.68 -6 16 C-5.34 16 -4.68 16 -4 16 C-4 14.68 -4 13.36 -4 12 C-3.34 12 -2.68 12 -2 12 C-2.309375 10.824375 -2.309375 10.824375 -2.625 9.625 C-2.74875 8.75875 -2.8725 7.8925 -3 7 C-2.34 6.34 -1.68 5.68 -1 5 C-1.33 4.01 -1.66 3.02 -2 2 C-1.34 1.34 -0.68 0.68 0 0 Z " fill="#7558BA" transform="translate(123,97)"/>
<path d="M0 0 C0.66 0 1.32 0 2 0 C2.103125 0.639375 2.20625 1.27875 2.3125 1.9375 C2.539375 2.618125 2.76625 3.29875 3 4 C3.99 4.33 4.98 4.66 6 5 C6.33 7.31 6.66 9.62 7 12 C6.01 12.33 5.02 12.66 4 13 C3.67 13.99 3.34 14.98 3 16 C2.731875 15.05125 2.46375 14.1025 2.1875 13.125 C1.25013412 9.74732727 1.25013412 9.74732727 -2 8 C-1.125 1.125 -1.125 1.125 0 0 Z " fill="#A150E1" transform="translate(132,89)"/>
<path d="M0 0 C1.22589844 0.01353516 1.22589844 0.01353516 2.4765625 0.02734375 C3.41628906 0.04474609 3.41628906 0.04474609 4.375 0.0625 C4.189375 0.84625 4.00375 1.63 3.8125 2.4375 C3.11537734 5.03339775 3.11537734 5.03339775 4.375 7.0625 C0.745 7.0625 -2.885 7.0625 -6.625 7.0625 C-6.625 5.0825 -6.625 3.1025 -6.625 1.0625 C-4.21954362 -0.14022819 -2.67503047 -0.03821472 0 0 Z " fill="#C333D8" transform="translate(148.625,140.9375)"/>
<path d="M0 0 C0.66 0.99 1.32 1.98 2 3 C0.68 5.64 -0.64 8.28 -2 11 C-1.34 11 -0.68 11 0 11 C0.33 12.98 0.66 14.96 1 17 C0.34 16.67 -0.32 16.34 -1 16 C-1 17.32 -1 18.64 -1 20 C-1.66 20 -2.32 20 -3 20 C-3.33 18.02 -3.66 16.04 -4 14 C-4.99 14 -5.98 14 -7 14 C-5.53967505 8.68972746 -3.01679014 4.53669968 0 0 Z " fill="#7463CB" transform="translate(122,89)"/>
<path d="M0 0 C0.99 0.66 1.98 1.32 3 2 C1.53524189 5.98944168 -0.37725413 9.48444425 -2.5625 13.125 C-4.35313061 16.11062526 -5.89882972 18.69648917 -7 22 C-4.69 22.33 -2.38 22.66 0 23 C0.33 22.01 0.66 21.02 1 20 C1.33 20.66 1.66 21.32 2 22 C1.67 22.66 1.34 23.32 1 24 C-2.3 24 -5.6 24 -9 24 C-8.505 19.545 -8.505 19.545 -8 15 C-7.01 15 -6.02 15 -5 15 C-5 13.35 -5 11.7 -5 10 C-4.01 9.67 -3.02 9.34 -2 9 C-2 8.01 -2 7.02 -2 6 C-1.34 6 -0.68 6 0 6 C0 4.02 0 2.04 0 0 Z " fill="#3682AE" transform="translate(93,117)"/>
<path d="M0 0 C4.47034438 3.95944788 7.7085099 8.44586447 10 14 C9.67 14.66 9.34 15.32 9 16 C7.5 14.625 7.5 14.625 6 13 C6 12.34 6 11.68 6 11 C5.01 11.495 5.01 11.495 4 12 C3.34444881 14.52733235 3.34444881 14.52733235 3 17 C2.34 17 1.68 17 1 17 C1.14107747 15.54119891 1.28802415 14.08296449 1.4375 12.625 C1.51871094 11.81289062 1.59992188 11.00078125 1.68359375 10.1640625 C2 8 2 8 3 6 C1.35 6 -0.3 6 -2 6 C-1.34 4.02 -0.68 2.04 0 0 Z " fill="#8A4BBF" transform="translate(128,78)"/>
<path d="M0 0 C0.99 0 1.98 0 3 0 C1.70922066 4.37574195 0.02218836 7.83103022 -2.5 11.625 C-4.52556151 14.68909093 -6.43783507 17.67258871 -8 21 C-9.33332095 18.3333581 -8.67102033 16.83319697 -8 14 C-7.34 14 -6.68 14 -6 14 C-6 12.68 -6 11.36 -6 10 C-5.34 10 -4.68 10 -4 10 C-4.33 8.02 -4.66 6.04 -5 4 C-4.34 4 -3.68 4 -3 4 C-2.34 3.01 -1.68 2.02 -1 1 C-0.67 0.67 -0.34 0.34 0 0 Z " fill="#4B75B4" transform="translate(105,98)"/>
<path d="M0 0 C1.37562854 1.28965176 2.70766393 2.62689293 4 4 C4 4.66 4 5.32 4 6 C4.66 6 5.32 6 6 6 C6.33 7.65 6.66 9.3 7 11 C4.36 11 1.72 11 -1 11 C-1.33 9.02 -1.66 7.04 -2 5 C-1.34 5 -0.68 5 0 5 C-0.2784375 4.0409375 -0.2784375 4.0409375 -0.5625 3.0625 C-0.7790625 2.0415625 -0.7790625 2.0415625 -1 1 C-0.67 0.67 -0.34 0.34 0 0 Z " fill="#D622D9" transform="translate(152,123)"/>
<path d="M0 0 C1.2380014 3.57644848 0.74926071 6.33694766 0 10 C-0.66 10 -1.32 10 -2 10 C-2.33 11.32 -2.66 12.64 -3 14 C-3.433125 12.576875 -3.433125 12.576875 -3.875 11.125 C-4.76825109 7.94788422 -4.76825109 7.94788422 -7 6 C-6.34 6 -5.68 6 -5 6 C-4.87625 5.195625 -4.7525 4.39125 -4.625 3.5625 C-4.41875 2.716875 -4.2125 1.87125 -4 1 C-2 0 -2 0 0 0 Z " fill="#7478E8" transform="translate(117,71)"/>
<path d="M0 0 C1.5625 1.8125 1.5625 1.8125 3 4 C2.67 4.99 2.34 5.98 2 7 C-1.95096978 7.04939662 -5.9018203 7.08571755 -9.85302734 7.10986328 C-11.8591136 7.12488107 -13.86511324 7.15028981 -15.87109375 7.17578125 C-17.12792969 7.18222656 -18.38476562 7.18867188 -19.6796875 7.1953125 C-20.84226074 7.20578613 -22.00483398 7.21625977 -23.20263672 7.22705078 C-26 7 -26 7 -28 5 C-18.76 5 -9.52 5 0 5 C0 3.35 0 1.7 0 0 Z " fill="#641363" transform="translate(167,144)"/>
<path d="M0 0 C0.99 0 1.98 0 3 0 C3 1.65 3 3.3 3 5 C2.34 5 1.68 5 1 5 C1 5.99 1 6.98 1 8 C0.01 8.495 0.01 8.495 -1 9 C-1.65555119 11.52733235 -1.65555119 11.52733235 -2 14 C-4.13586678 10.79619983 -4.23132175 9.98060033 -4.125 6.3125 C-4.10695313 5.50425781 -4.08890625 4.69601563 -4.0703125 3.86328125 C-4.04710938 3.24839844 -4.02390625 2.63351563 -4 2 C-3.01 2 -2.02 2 -1 2 C-0.67 1.34 -0.34 0.68 0 0 Z " fill="#35AFF3" transform="translate(90,118)"/>
<path d="M0 0 C0.33 0 0.66 0 1 0 C1.49304175 7.39562624 1.49304175 7.39562624 -0.9375 10.375 C-1.618125 10.91125 -2.29875 11.4475 -3 12 C-3.33 12.66 -3.66 13.32 -4 14 C-4.99 14 -5.98 14 -7 14 C-7 14.99 -7 15.98 -7 17 C-7.66 17 -8.32 17 -9 17 C-7.51463956 12.97683781 -5.60123107 9.38707358 -3.4375 5.6875 C-2.81746094 4.61886719 -2.19742188 3.55023438 -1.55859375 2.44921875 C-1.04425781 1.64097656 -0.52992187 0.83273438 0 0 Z " fill="#5F69BA" transform="translate(114,103)"/>
<path d="M0 0 C0.33 0.66 0.66 1.32 1 2 C1.66 2 2.32 2 3 2 C1.3003494 6.73474097 -1.13659027 10.96167111 -3.625 15.3125 C-4.04523438 16.05306641 -4.46546875 16.79363281 -4.8984375 17.55664062 C-5.92948495 19.37269011 -6.96436046 21.18656533 -8 23 C-8.33 23 -8.66 23 -9 23 C-9.368 17.48 -9.368 17.48 -7.5625 15.125 C-6 14 -6 14 -5 14 C-4.814375 12.8553125 -4.814375 12.8553125 -4.625 11.6875 C-4 9 -4 9 -2 6 C-1.34 6 -0.68 6 0 6 C0 4.02 0 2.04 0 0 Z " fill="#53589A" transform="translate(117,75)"/>
<path d="M0 0 C0.99 0.33 1.98 0.66 3 1 C3 2.32 3 3.64 3 5 C3.99 5.33 4.98 5.66 6 6 C6.33 6.66 6.66 7.32 7 8 C20.365 8.495 20.365 8.495 34 9 C34 9.33 34 9.66 34 10 C29.96212805 10.19847749 25.9261578 10.34323514 21.88452148 10.43945312 C20.5116225 10.47957083 19.13906302 10.53408586 17.76733398 10.60351562 C6.3633415 11.16606295 6.3633415 11.16606295 2.95849609 8.25390625 C1.21012519 5.52558425 0 3.27448834 0 0 Z " fill="#B639BB" transform="translate(133,139)"/>
<path d="M0 0 C0.66 0 1.32 0 2 0 C2 0.66 2 1.32 2 2 C2.66 2.33 3.32 2.66 4 3 C3.67 5.97 3.34 8.94 3 12 C1.68 12 0.36 12 -1 12 C-1.02698189 10.37509046 -1.04638757 8.75005367 -1.0625 7.125 C-1.07410156 6.22007813 -1.08570312 5.31515625 -1.09765625 4.3828125 C-1 2 -1 2 0 0 Z " fill="#6389EB" transform="translate(105,120)"/>
<path d="M0 0 C0.99 0.99 1.98 1.98 3 3 C2.67 3.66 2.34 4.32 2 5 C1.34 4.67 0.68 4.34 0 4 C0 7.3 0 10.6 0 14 C-0.99 14 -1.98 14 -3 14 C-4.3125 12.0625 -4.3125 12.0625 -5 9 C-3.6542729 5.79384541 -1.89068242 2.91215849 0 0 Z " fill="#7451AB" transform="translate(128,113)"/>
<path d="M0 0 C1 2 1 2 1 5 C14.86 5.495 14.86 5.495 29 6 C29 6.33 29 6.66 29 7 C18.77 7 8.54 7 -2 7 C-2.33 6.34 -2.66 5.68 -3 5 C-1.5625 2.375 -1.5625 2.375 0 0 Z " fill="#114E6D" transform="translate(70,143)"/>
<path d="M0 0 C0.99 0 1.98 0 3 0 C2.67 1.98 2.34 3.96 2 6 C3.98 6 5.96 6 8 6 C7.625 8.4375 7.625 8.4375 7 11 C4.04335481 12.4783226 1.25770263 12.06032783 -2 12 C-2 11.67 -2 11.34 -2 11 C-0.02 10.34 1.96 9.68 4 9 C2.68 8.34 1.36 7.68 0 7 C0 4.69 0 2.38 0 0 Z " fill="#31B3F1" transform="translate(82,136)"/>
<path d="M0 0 C1.65 0.33 3.3 0.66 5 1 C4.67 2.32 4.34 3.64 4 5 C3.34 5 2.68 5 2 5 C2 6.65 2 8.3 2 10 C1.01 10 0.02 10 -1 10 C-2.25 3.375 -2.25 3.375 0 0 Z " fill="#885BD4" transform="translate(125,84)"/>
<path d="M0 0 C1.5 1.125 1.5 1.125 3 3 C3.1875 6.1875 3.1875 6.1875 3 9 C0.69 8.67 -1.62 8.34 -4 8 C-3.40138258 5.64828869 -2.73075648 3.3140622 -2 1 C-1.34 0.67 -0.68 0.34 0 0 Z " fill="#D512C0" transform="translate(164,139)"/>
<path d="M0 0 C0.66 0 1.32 0 2 0 C2 0.99 2 1.98 2 3 C2.99 2.67 3.98 2.34 5 2 C5 3.98 5 5.96 5 8 C4.34 8 3.68 8 3 8 C2.67 8.99 2.34 9.98 2 11 C1.34 11 0.68 11 0 11 C0 8.69 0 6.38 0 4 C-0.66 3.67 -1.32 3.34 -2 3 C-1.34 2.01 -0.68 1.02 0 0 Z " fill="#4E9AEF" transform="translate(96,136)"/>
<path d="M0 0 C0.99 0 1.98 0 3 0 C3.33 3.3 3.66 6.6 4 10 C3.34 10 2.68 10 2 10 C2 10.66 2 11.32 2 12 C1.01 12.33 0.02 12.66 -1 13 C-0.67 8.71 -0.34 4.42 0 0 Z " fill="#7A73EA" transform="translate(115,103)"/>
<path d="M0 0 C2.61724095 2.36797991 4.32861729 4.89600354 6 8 C6 8.66 6 9.32 6 10 C5.01 9.67 4.02 9.34 3 9 C3 8.34 3 7.68 3 7 C2.21625 7.185625 1.4325 7.37125 0.625 7.5625 C-2 8 -2 8 -4 7 C-4.33 7.66 -4.66 8.32 -5 9 C-5 7.68 -5 6.36 -5 5 C-3.35 4.67 -1.7 4.34 0 4 C0 2.68 0 1.36 0 0 Z " fill="#AD1FA6" transform="translate(158,129)"/>
<path d="M0 0 C0.99 0.33 1.98 0.66 3 1 C2.67 3.97 2.34 6.94 2 10 C1.01 9.67 0.02 9.34 -1 9 C-3.6569191 9.87914688 -3.6569191 9.87914688 -6 11 C-5.67 9.68 -5.34 8.36 -5 7 C-4.01 7 -3.02 7 -2 7 C-1.34 4.69 -0.68 2.38 0 0 Z " fill="#5694ED" transform="translate(101,93)"/>
<path d="M0 0 C1.18250498 3.99634895 0.86509962 6.18870948 -1 10 C-4.125 11.875 -4.125 11.875 -7 13 C-5.35821735 8.22390502 -2.73453298 4.20617096 0 0 Z " fill="#179FBD" transform="translate(78,130)"/>
<path d="M0 0 C0 0.99 0 1.98 0 3 C0.020625 4.175625 0.04125 5.35125 0.0625 6.5625 C0 10 0 10 -1 12 C-2.32 11.67 -3.64 11.34 -5 11 C-4.50769231 3.49230769 -4.50769231 3.49230769 -1.9375 1 C-1.298125 0.67 -0.65875 0.34 0 0 Z " fill="#1CC5F9" transform="translate(81,132)"/>
<path d="M0 0 C1.2380014 3.57644848 0.74926071 6.33694766 0 10 C-0.66 10 -1.32 10 -2 10 C-2.33 10.66 -2.66 11.32 -3 12 C-3.99 12 -4.98 12 -6 12 C-4.43358249 7.69235185 -2.31663844 3.93828536 0 0 Z " fill="#4A75BB" transform="translate(104,120)"/>
<path d="M0 0 C0.99 0.33 1.98 0.66 3 1 C3.33 2.65 3.66 4.3 4 6 C3.34 6 2.68 6 2 6 C2 8.64 2 11.28 2 14 C-0.46469381 11.53530619 -0.38543894 10.4068526 -0.6875 7 C-0.77386719 6.113125 -0.86023438 5.22625 -0.94921875 4.3125 C-1 2 -1 2 0 0 Z " fill="#B341DD" transform="translate(139,102)"/>
<path d="M0 0 C3.52082979 0.03806302 6.85343525 0.43318705 10.3125 1.125 C10.3125 1.455 10.3125 1.785 10.3125 2.125 C6.0225 2.125 1.7325 2.125 -2.6875 2.125 C-3.0175 6.085 -3.3475 10.045 -3.6875 14.125 C-4.0175 14.125 -4.3475 14.125 -4.6875 14.125 C-4.71435938 11.97923363 -4.73383088 9.83337355 -4.75 7.6875 C-4.76160156 6.49253906 -4.77320313 5.29757813 -4.78515625 4.06640625 C-4.64071062 -0.28429605 -4.49012235 0.15220754 0 0 Z " fill="#848484" transform="translate(387.6875,69.875)"/>
<path d="M0 0 C0.66 0 1.32 0 2 0 C2.33 1.98 2.66 3.96 3 6 C2.01 6.33 1.02 6.66 0 7 C-0.33 7.99 -0.66 8.98 -1 10 C-2.1875 7.8125 -2.1875 7.8125 -3 5 C-1.75 2.1875 -1.75 2.1875 0 0 Z " fill="#AB49DF" transform="translate(136,95)"/>
<path d="M0 0 C0.66 0 1.32 0 2 0 C2 1.32 2 2.64 2 4 C2.99 4.33 3.98 4.66 5 5 C4.34 5 3.68 5 3 5 C3 6.98 3 8.96 3 11 C2.34 11 1.68 11 1 11 C1 9.35 1 7.7 1 6 C0.34 6 -0.32 6 -1 6 C-1.042721 4.33388095 -1.04063832 2.66617115 -1 1 C-0.67 0.67 -0.34 0.34 0 0 Z " fill="#B540E3" transform="translate(139,137)"/>
<path d="M0 0 C0.66 0 1.32 0 2 0 C2.33 3.3 2.66 6.6 3 10 C1.35 9.01 -0.3 8.02 -2 7 C-1.125 2.25 -1.125 2.25 0 0 Z " fill="#41A6F1" transform="translate(92,108)"/>
<path d="M0 0 C5.57142857 5.14285714 5.57142857 5.14285714 6 9 C5.01 8.67 4.02 8.34 3 8 C3 7.34 3 6.68 3 6 C1.35 6 -0.3 6 -2 6 C-1.34 4.02 -0.68 2.04 0 0 Z " fill="#6D4692" transform="translate(128,78)"/>
<path d="M0 0 C0.33 0 0.66 0 1 0 C1 2.31 1 4.62 1 7 C-4.28 7 -9.56 7 -15 7 C-14.67 5.35 -14.34 3.7 -14 2 C-13.01 3.485 -13.01 3.485 -12 5 C-9.33346095 5.36460453 -9.33346095 5.36460453 -6.375 5.1875 C-5.37210937 5.16042969 -4.36921875 5.13335937 -3.3359375 5.10546875 C-2.56507813 5.07066406 -1.79421875 5.03585938 -1 5 C-0.67 3.35 -0.34 1.7 0 0 Z " fill="#5E5E5E" transform="translate(279,110)"/>
<path d="M0 0 C0.33 0.66 0.66 1.32 1 2 C0.06421005 4.35981813 -0.93347808 6.69631264 -2 9 C-2.66 9 -3.32 9 -4 9 C-4.103125 9.61875 -4.20625 10.2375 -4.3125 10.875 C-5 13 -5 13 -8 15 C-7.72285156 14.44699219 -7.44570312 13.89398438 -7.16015625 13.32421875 C-6.35134572 11.70387442 -5.5469992 10.08129744 -4.74609375 8.45703125 C-4.31425781 7.58433594 -3.88242188 6.71164063 -3.4375 5.8125 C-3.00308594 4.93207031 -2.56867188 4.05164063 -2.12109375 3.14453125 C-1 1 -1 1 0 0 Z " fill="#3E4F7E" transform="translate(110,74)"/>
<path d="M0 0 C3 2 3 2 3.8125 5 C3.874375 5.99 3.93625 6.98 4 8 C3.34 8.66 2.68 9.32 2 10 C0.35 7.03 -1.3 4.06 -3 1 C-2.01 0.67 -1.02 0.34 0 0 Z " fill="#7742A7" transform="translate(131,96)"/>
<path d="M0 0 C2 0 2 0 4.125 1.5625 C6.62040957 4.80653244 6.3069357 7.0098359 6 11 C2.80623468 9.40311734 1.42408504 6.16616965 0 3 C0 2.01 0 1.02 0 0 Z " fill="#7746A3" transform="translate(127,128)"/>
<path d="M0 0 C0.66 0.66 1.32 1.32 2 2 C1.1875 3.9375 1.1875 3.9375 0 6 C-0.99 6.33 -1.98 6.66 -3 7 C-3.33 7.66 -3.66 8.32 -4 9 C-4.66 9 -5.32 9 -6 9 C-5.25 6.0625 -5.25 6.0625 -4 3 C-1.875 2.125 -1.875 2.125 0 2 C0 1.34 0 0.68 0 0 Z " fill="#2B9BC9" transform="translate(85,121)"/>
<path d="M0 0 C0.33 0.66 0.66 1.32 1 2 C0.67 2.99 0.34 3.98 0 5 C0.66 5.33 1.32 5.66 2 6 C1.01 6.99 0.02 7.98 -1 9 C-1.66 8.67 -2.32 8.34 -3 8 C-3.33 8.99 -3.66 9.98 -4 11 C-4.33 10.34 -4.66 9.68 -5 9 C-4.00390625 6.8359375 -4.00390625 6.8359375 -2.5625 4.375 C-2.08941406 3.55773437 -1.61632812 2.74046875 -1.12890625 1.8984375 C-0.75636719 1.27195312 -0.38382812 0.64546875 0 0 Z " fill="#326FA0" transform="translate(95,100)"/>
<path d="M0 0 C1.28485596 5.13942384 0.22194431 6.37835584 -2 11 C-2.99 10.67 -3.98 10.34 -5 10 C-3.35 6.7 -1.7 3.4 0 0 Z " fill="#426DA3" transform="translate(101,89)"/>
<path d="M0 0 C0.33 0.66 0.66 1.32 1 2 C3.32156597 2.40729228 5.6568787 2.74438677 8 3 C8.33 2.01 8.66 1.02 9 0 C9.33 0.66 9.66 1.32 10 2 C9.67 2.66 9.34 3.32 9 4 C5.7 4 2.4 4 -1 4 C-0.67 2.68 -0.34 1.36 0 0 Z " fill="#1A4A6C" transform="translate(85,137)"/>
<path d="M0 0 C0.66 0.33 1.32 0.66 2 1 C1.44271087 4.34373475 0.64826111 7.03312999 -1 10 C-1.99 9.67 -2.98 9.34 -4 9 C-3.34 7.68 -2.68 6.36 -2 5 C-1.34 5 -0.68 5 0 5 C0 3.35 0 1.7 0 0 Z " fill="#4E7AB8" transform="translate(101,139)"/>
<path d="M0 0 C0.66 0 1.32 0 2 0 C1.5206753 4.31392226 0.2542015 6.16569547 -3 9 C-2.67 6.69 -2.34 4.38 -2 2 C-1.34 2 -0.68 2 0 2 C0 1.34 0 0.68 0 0 Z " fill="#5D5BA3" transform="translate(117,113)"/>
<path d="M0 0 C0.66 0 1.32 0 2 0 C1.48964169 4.3890815 0.47785723 7.33708062 -2 11 C-3.33332095 8.3333581 -2.67102033 6.83319697 -2 4 C-1.34 4 -0.68 4 0 4 C0 2.68 0 1.36 0 0 Z " fill="#3F699B" transform="translate(99,108)"/>
<path d="M0 0 C4.42857143 5.14285714 4.42857143 5.14285714 5 9 C3.68 8.67 2.36 8.34 1 8 C0.67 5.36 0.34 2.72 0 0 Z " fill="#813393" transform="translate(142,101)"/>
<path d="M0 0 C0.99 0.33 1.98 0.66 3 1 C3 2.32 3 3.64 3 5 C3.99 5.33 4.98 5.66 6 6 C6.33 6.99 6.66 7.98 7 9 C6.01 9 5.02 9 4 9 C0 2.25 0 2.25 0 0 Z " fill="#683785" transform="translate(133,139)"/>
<path d="M0 0 C0.66 1.32 1.32 2.64 2 4 C2.99 4 3.98 4 5 4 C5 4.66 5 5.32 5 6 C3.68 6.33 2.36 6.66 1 7 C1 6.01 1 5.02 1 4 C0.01 4.33 -0.98 4.66 -2 5 C-1.34 3.35 -0.68 1.7 0 0 Z " fill="#4383C5" transform="translate(97,132)"/>
<path d="M0 0 C1 2 1 2 1 5 C2.32 5.66 3.64 6.32 5 7 C2.69 7 0.38 7 -2 7 C-2.33 6.34 -2.66 5.68 -3 5 C-1.5625 2.375 -1.5625 2.375 0 0 Z " fill="#125C72" transform="translate(70,143)"/>
<path d="M0 0 C1.32 0 2.64 0 4 0 C3.40072174 3.35595828 2.15377564 5.37801226 0 8 C-0.625 6.125 -0.625 6.125 -1 4 C-0.34 3.34 0.32 2.68 1 2 C0.67 1.34 0.34 0.68 0 0 Z " fill="#5B4F8E" transform="translate(120,69)"/>
<path d="M0 0 C0.6875 1.75 0.6875 1.75 1 4 C-0.3125 6.25 -0.3125 6.25 -2 8 C-2.66 8 -3.32 8 -4 8 C-2.87548273 5.0280615 -1.77706209 2.66559313 0 0 Z " fill="#1E768D" transform="translate(78,130)"/>
<path d="M0 0 C1.5 1.3125 1.5 1.3125 3 3 C3 3.99 3 4.98 3 6 C2.34 6 1.68 6 1 6 C1 5.34 1 4.68 1 4 C0.01 4.33 -0.98 4.66 -2 5 C-1.125 1.125 -1.125 1.125 0 0 Z " fill="#5D8BDF" transform="translate(104,87)"/>
<path d="M0 0 C0.66 0 1.32 0 2 0 C1.67 0.66 1.34 1.32 1 2 C0.67 1.34 0.34 0.68 0 0 Z M0 2 C0.33 2 0.66 2 1 2 C1 3.98 1 5.96 1 8 C0.01 8.33 -0.98 8.66 -2 9 C-2 7.68 -2 6.36 -2 5 C-1.34 5 -0.68 5 0 5 C0 4.01 0 3.02 0 2 Z " fill="#9759E0" transform="translate(129,84)"/>
</svg>
